<svg width="176" height="42" viewBox="0 0 176 42" fill="none" xmlns="http://www.w3.org/2000/svg"><path fill-rule="evenodd" clip-rule="evenodd" d="M22.243 12.1944C22.243 14.392 20.5822 16.1783 18.5345 16.1783C17.9321 16.1783 17.3656 16.0227 16.8627 15.7449C16.8599 15.7477 16.8571 15.7477 16.8571 15.7449C16.8544 15.7449 16.8516 15.7421 16.8516 15.7394C16.8461 15.7421 16.8433 15.7394 16.8378 15.731C16.7991 15.7116 16.7715 15.6671 16.7715 15.6171C16.7715 15.5477 16.8185 15.4893 16.8848 15.4754C16.8931 15.4727 16.9041 15.4727 16.9124 15.4727C18.7915 15.2782 20.2617 13.578 20.2617 11.5055C20.2617 10.3081 19.767 9.23572 18.9905 8.50229C18.9877 8.50229 18.9877 8.50229 18.9877 8.49951C18.9601 8.47451 18.9463 8.43839 18.9463 8.3995C18.9463 8.32171 19.0098 8.25781 19.0872 8.25781C19.0955 8.25781 19.1066 8.25781 19.1176 8.26059C20.889 8.55785 22.243 10.2053 22.243 12.1944Z" fill="white"></path><path fill-rule="evenodd" clip-rule="evenodd" d="M28.5377 7.3077C28.1425 6.9771 27.5788 7.4216 27.7971 7.88833C29.4358 11.4221 29.3446 15.4171 27.5898 18.4897C25.1801 22.7014 20.1425 25.3434 14.3697 23.3765C13.806 23.1848 13.2616 22.9403 12.7393 22.6514C10.9376 21.6485 9.48401 20.1205 8.65222 18.3119C7.83702 16.5311 7.62147 14.4725 8.29022 12.3834C8.45602 11.8666 8.67986 11.3416 8.96172 10.8109C9.93997 8.98014 11.2913 7.73831 12.789 6.98543C12.8222 6.97154 12.8581 6.96321 12.8941 6.96321C13.0405 6.96321 13.1621 7.08267 13.1621 7.23269C13.1621 7.28547 13.1483 7.3327 13.1234 7.37437C13.1124 7.39382 13.0985 7.40771 13.0847 7.4216C12.3524 8.39117 11.8136 9.38575 11.4681 10.3859C10.6585 12.7334 10.8077 15.0282 11.6809 16.884C11.6892 16.9034 11.7003 16.9201 11.7085 16.9367C15.2264 23.0681 24.6192 22.0208 26.4292 14.7531C27.1339 12.2695 26.4237 8.31061 24.1135 6.66594C23.6575 6.33812 22.8672 6.10754 22.2703 6.09642C21.8696 6.09642 21.5407 6.42702 21.5407 6.82985C21.5407 6.91876 21.5518 6.99932 21.585 7.07433C21.585 7.09656 21.5932 7.11322 21.6043 7.13267C21.6568 7.24658 21.7342 7.34381 21.8337 7.4216C21.8447 7.42993 21.8585 7.44105 21.8696 7.44938C22.5383 7.94389 23.1048 8.51897 23.453 9.36352C24.0554 10.8109 24.2544 12.45 23.8233 13.9669C22.3587 20.4733 12.5624 19.0426 14.3089 11.3832C15.2651 7.60218 19.1863 5.0574 23.2789 3.69889C23.4337 3.6461 23.6022 3.67666 23.7321 3.77667C24.1411 4.10172 24.6164 4.56011 25.0143 5.02962C25.2741 5.33521 25.7743 5.19908 25.8517 4.80459C26.1473 3.34328 26.4872 2.01811 26.9018 0.623478C27.004 0.278988 26.7083 -0.0516102 26.3546 0.00673086C23.348 0.504019 20.2005 1.55416 17.6858 3.25716C7.97242 3.08214 0 10.9915 0 20.7511C0 29.2689 6.05739 36.3643 14.0768 37.9229C14.436 37.9923 14.5908 38.4229 14.3587 38.7063L13.1621 40.1759C12.9189 40.4787 13.1068 40.9371 13.4937 40.9705C24.0886 41.9706 32.5667 33.1361 34.421 24.2849C35.7585 17.9119 33.4427 11.411 28.5377 7.3077ZM5.41904 11.0276C4.63699 12.1806 4.01523 13.578 3.57032 15.1754C3.32161 16.095 3.15028 16.9395 3.04527 17.7646C2.92368 18.6286 2.86013 19.5288 2.8546 20.4372C2.83802 21.304 2.88223 22.2069 2.98171 23.1209C3.06738 23.9543 3.2166 24.81 3.43768 25.7379C3.83561 27.3465 4.41039 28.7772 5.15099 29.994C5.1952 30.0663 5.18138 30.1663 5.11783 30.2191C5.09296 30.2385 5.06532 30.2496 5.03492 30.2496C4.999 30.2496 4.96308 30.2329 4.93544 30.2024C4.03457 29.1578 3.28845 27.7187 2.77999 26.0352C2.52852 25.2212 2.33508 24.3211 2.19138 23.2848C2.07255 22.3847 2.01452 21.4235 2.02005 20.4261C2.03663 19.4093 2.11677 18.4508 2.2577 17.5729C2.4318 16.5367 2.65011 15.6449 2.92092 14.8504C3.47913 13.1862 4.26946 11.7888 5.21178 10.8137C5.26429 10.7609 5.34166 10.7582 5.39417 10.8054C5.45496 10.8582 5.46602 10.9582 5.41904 11.0276ZM20.8278 31.2525C19.8302 34.4946 13.5048 34.6919 12.2557 30.908C12.1203 30.4913 12.5431 30.1218 12.9327 30.3135C15.0689 31.3692 18.0285 31.4776 20.2005 30.6469C20.5763 30.5024 20.9438 30.8664 20.8278 31.2525ZM23.1187 26.188C22.2067 28.0966 19.4875 29.5745 16.2461 29.2745C12.8885 28.9633 10.8574 27.1437 10.1168 25.1712C10.1113 25.1601 10.1058 25.1462 10.1058 25.1323C10.1002 25.1212 10.0975 25.1073 10.092 25.0962C9.94273 24.685 10.3987 24.3183 10.7773 24.5378C10.7883 24.5433 10.7994 24.5489 10.8077 24.5572C10.8187 24.5628 10.8326 24.5711 10.8408 24.5794C12.0402 25.274 14.0298 26.1519 16.5113 26.3824C18.3076 26.5491 20.3414 26.3713 22.5079 25.5268C22.9197 25.3601 23.3121 25.7851 23.1187 26.188Z" fill="white"></path><path d="M40.959 19.8304C40.959 14.8257 44.5937 11.1104 49.3587 11.1104C54.6415 11.1104 57.6027 14.7338 57.6027 19.3677C57.6027 19.7998 57.579 20.2149 57.5215 20.5823C57.4707 20.909 57.1865 21.1471 56.8582 21.1471H46.5633C46.1132 21.1471 45.7782 21.586 45.9203 22.0147C46.4415 23.6274 47.7952 24.6175 49.7276 24.6175C51.1151 24.6175 52.1879 24.1003 52.8715 23.2361C53.0712 22.981 53.4096 22.8857 53.7007 23.0252L56.2287 24.233C56.5874 24.4031 56.716 24.8454 56.5164 25.1925C55.3183 27.2747 52.7666 28.6118 49.6666 28.6118C44.3805 28.6084 40.959 24.6787 40.959 19.8304ZM46.7427 17.7721C48.0997 17.7721 50.6041 17.7721 51.9104 17.7721C52.3842 17.7721 52.7023 17.2923 52.5365 16.8466C52.0627 15.5878 50.9053 14.7916 49.3621 14.7916C47.8899 14.7916 46.7427 15.4891 46.1403 16.799C45.9271 17.2549 46.2452 17.7721 46.7427 17.7721Z" fill="white"></path><path d="M59.375 12.0018C59.375 11.7126 59.6085 11.4778 59.8962 11.4778H63.1315C63.4192 11.4778 63.6527 11.7126 63.6527 12.0018C63.6527 12.4645 64.1942 12.689 64.5326 12.376C65.47 11.5152 66.7933 11.1104 68.3229 11.1104C72.0795 11.1104 74.6447 13.6587 74.6447 17.4658V27.7204C74.6447 28.0096 74.4112 28.2443 74.1235 28.2443H70.5836C70.296 28.2443 70.0624 28.0096 70.0624 27.7204V18.4491C70.0624 16.5166 68.8103 15.2544 67.0099 15.2544C65.2094 15.2544 63.9573 16.5132 63.9573 18.4491V27.7204C63.9573 28.0096 63.7238 28.2443 63.4361 28.2443H59.8962C59.6085 28.2443 59.375 28.0096 59.375 27.7204V12.0018Z" fill="white"></path><path d="M96.0099 5.54395H99.2486C99.6209 5.54395 99.9187 5.84675 99.9187 6.2176V28.108C99.9187 28.4822 99.6175 28.7816 99.2486 28.7816H96.0099C95.6377 28.7816 95.3398 28.4788 95.3398 28.108V6.2176C95.3398 5.84675 95.6377 5.54395 96.0099 5.54395Z" fill="white"></path><path d="M102.434 5.54395H105.672C106.045 5.54395 106.343 5.84675 106.343 6.2176V9.4736C106.343 9.84785 106.041 10.1473 105.672 10.1473H102.434C102.061 10.1473 101.764 9.84445 101.764 9.4736V6.2176C101.764 5.84675 102.065 5.54395 102.434 5.54395Z" fill="white"></path><path d="M102.434 11.4785H105.672C106.045 11.4785 106.343 11.7915 106.343 12.176V28.0885C106.343 28.473 106.041 28.786 105.672 28.786H102.434C102.061 28.786 101.764 28.473 101.764 28.0885V12.176C101.764 11.7915 102.065 11.4785 102.434 11.4785Z" fill="white"></path><path d="M107.921 23.519L110.137 22.4643C110.452 22.3146 110.821 22.4337 111 22.7331C111.887 24.2131 113.281 25.0773 114.896 25.0773C116.178 25.0773 116.913 24.5261 116.913 23.5734C116.913 22.8658 116.364 22.4065 115.265 22.1002L112.425 21.3007C109.708 20.5318 108.181 18.7218 108.181 16.3265C108.181 13.2271 110.747 11.1074 114.503 11.1074C117.518 11.1074 119.962 12.4922 121.136 14.8772C121.302 15.2106 121.15 15.6189 120.811 15.7788L118.618 16.8131C118.321 16.9526 117.931 16.8403 117.766 16.5579C117.139 15.4828 115.901 14.7955 114.503 14.7955C113.312 14.7955 112.611 15.3161 112.611 16.1768C112.611 16.8505 113.16 17.3132 114.412 17.6807L117.068 18.4802C119.847 19.3104 121.343 20.9979 121.343 23.3931C121.343 26.5266 118.777 28.6122 114.899 28.6122C111.495 28.6122 108.75 26.9962 107.592 24.4036C107.444 24.0736 107.596 23.6721 107.921 23.519Z" fill="white"></path><path d="M123.694 5H126.933C127.305 5 127.603 5.3028 127.603 5.67365V11.4303C127.603 11.9679 128.202 12.3115 128.645 12.0087C129.539 11.3997 130.689 11.1071 131.969 11.1071C135.725 11.1071 138.29 13.6554 138.29 17.4626V27.564C138.29 27.9383 137.989 28.2377 137.62 28.2377H134.382C134.009 28.2377 133.711 27.9349 133.711 27.564V18.4459C133.711 16.5134 132.459 15.2511 130.659 15.2511C128.858 15.2511 127.606 16.51 127.606 18.4459V27.564C127.606 27.9383 127.305 28.2377 126.936 28.2377H123.697C123.325 28.2377 123.027 27.9349 123.027 27.564V5.67365C123.024 5.3028 123.325 5 123.694 5Z" fill="white"></path><path d="M140.12 11.4785H143.609C143.894 11.4785 144.144 11.6554 144.242 11.9242L147.055 19.7597C147.268 20.3551 148.104 20.3551 148.317 19.7597L151.129 11.9242C151.224 11.6554 151.478 11.4785 151.762 11.4785H155.251C155.725 11.4785 156.05 11.9582 155.877 12.4005L149.84 27.8129C149.738 28.0715 149.491 28.2416 149.214 28.2416H146.158C145.88 28.2416 145.633 28.0715 145.532 27.8129L139.494 12.4005C139.322 11.9582 139.646 11.4785 140.12 11.4785Z" fill="white"></path><path d="M158.408 5.36719H161.647C162.019 5.36719 162.317 5.66999 162.317 6.04084V9.29684C162.317 9.67109 162.016 9.9705 161.647 9.9705H158.408C158.036 9.9705 157.738 9.66769 157.738 9.29684V6.04084C157.738 5.66999 158.036 5.36719 158.408 5.36719ZM158.408 11.4777H161.647C162.019 11.4777 162.317 11.7805 162.317 12.1514V27.5638C162.317 27.938 162.016 28.2374 161.647 28.2374H158.408C158.036 28.2374 157.738 27.9346 157.738 27.5638V12.1514C157.738 11.7805 158.036 11.4777 158.408 11.4777Z" fill="white"></path><path d="M166.899 22.1915V16.1456C166.899 15.7713 166.598 15.4719 166.229 15.4719H164.764C164.392 15.4719 164.094 15.1691 164.094 14.7983V12.1581C164.094 11.7838 164.395 11.4844 164.764 11.4844H166.229C166.601 11.4844 166.899 11.1816 166.899 10.8108V8.35432C166.899 7.98007 167.2 7.68066 167.569 7.68066H170.808C171.18 7.68066 171.478 7.98347 171.478 8.35432V10.8108C171.478 11.185 171.779 11.4844 172.148 11.4844H174.714C175.086 11.4844 175.384 11.7872 175.384 12.1581V14.7983C175.384 15.1725 175.082 15.4719 174.714 15.4719H172.148C171.776 15.4719 171.478 15.7747 171.478 16.1456V21.8887C171.478 23.6068 172.395 24.437 174.318 24.437C174.392 24.437 174.47 24.4336 174.558 24.4302C174.595 24.4268 174.632 24.4268 174.67 24.4234C175.055 24.3962 175.387 24.7058 175.387 25.097V27.6522C175.387 27.9958 175.133 28.2816 174.795 28.3224C174.297 28.3802 173.742 28.4279 173.248 28.4279C169.221 28.4245 166.899 26.1211 166.899 22.1915Z" fill="white"></path><path d="M92.9988 11.4778H89.7601C89.4724 11.4778 89.2423 11.7126 89.2423 11.9984C89.2423 12.427 88.7448 12.6822 88.4132 12.4168C87.3336 11.5458 85.9901 11.1104 84.3859 11.1104C79.7732 11.1104 76.416 14.5195 76.416 19.2146C76.416 23.9438 79.8036 27.4142 84.4773 27.4142C85.9258 27.4142 87.1509 27.0807 88.1391 26.4139C88.4809 26.1825 88.9344 26.4411 88.9344 26.8494V27.3529C88.9344 29.5304 87.5299 30.8505 85.2726 30.8505C83.5432 30.8505 82.1828 30.0816 81.5939 28.7887C81.4822 28.5471 81.198 28.4144 80.9475 28.5029L77.6817 29.6597C77.3975 29.7617 77.2587 30.085 77.3738 30.3606C78.5786 33.1947 81.6142 34.9979 85.2726 34.9979C90.0647 34.9979 93.5166 31.8031 93.5166 27.3529V11.9984C93.5166 11.7126 93.2831 11.4778 92.9988 11.4778ZM88.8667 20.1094C88.8667 20.1162 88.8633 20.1264 88.8633 20.1332C88.5248 21.6575 87.3234 22.8585 85.8005 23.1851C85.5264 23.2463 85.2421 23.277 84.9511 23.277C84.4198 23.277 83.9121 23.1715 83.4485 22.981C82.6532 22.6578 81.9865 22.0862 81.5432 21.3615C81.1641 20.7491 80.9475 20.0244 80.9475 19.2521C80.9475 17.0303 82.7412 15.2271 84.9511 15.2271C85.1711 15.2271 85.391 15.2441 85.6009 15.2816C87.161 15.5367 88.4166 16.6935 88.8193 18.2041C88.8227 18.2075 88.8227 18.2109 88.8227 18.2143C88.9107 18.5444 88.958 18.8914 88.958 19.2521C88.958 19.5446 88.9276 19.8338 88.8667 20.1094Z" fill="white"></path></svg>