<svg width="25" height="25" viewBox="0 0 25 25" fill="none" xmlns="http://www.w3.org/2000/svg"><path fill-rule="evenodd" clip-rule="evenodd" d="M7.27238 17.4668C7.27238 17.8506 7.12059 18.2204 6.84953 18.4924C6.57847 18.7643 6.21137 18.9151 5.82879 18.9151H3.78734C3.40476 18.9151 3.03769 18.7628 2.76664 18.4924C2.49558 18.2204 2.34375 17.8506 2.34375 17.4668V11.1143C2.34375 10.7305 2.49558 10.3606 2.76664 10.0887C3.03769 9.81676 3.40476 9.66447 3.78734 9.66447H5.82879C6.21137 9.66447 6.57847 9.81676 6.84953 10.0887C7.12059 10.3606 7.27238 10.7305 7.27238 11.1143V17.4668ZM21.3225 13.5074C21.5827 13.843 21.7035 14.2688 21.6602 14.693C21.6168 15.1157 21.4123 15.5073 21.0886 15.7839C20.8129 15.9999 20.4303 16.1972 20.4118 16.5391C20.3978 16.825 20.6472 17.0441 20.8237 17.2725C21.0607 17.6066 21.1661 18.02 21.1196 18.4287C21.0716 18.8389 20.8764 19.215 20.5697 19.4869C20.1221 19.8629 19.5134 19.964 18.9356 20.0417C17.2195 20.2716 15.4754 20.4115 13.753 20.2281C12.0291 20.0463 10.3144 19.5273 8.89253 18.5343C8.55022 18.3292 8.27298 18.0278 8.0933 17.6704C8.00192 17.3953 7.96009 17.1063 7.97093 16.8157L7.88419 12.2751C7.84392 11.8198 7.90124 11.3598 8.05303 10.9294C8.34732 10.255 9.05052 9.88204 9.67008 9.48112C10.4693 8.96988 11.1896 8.34674 11.8122 7.63193C12.2552 7.12224 12.661 6.52552 12.6858 5.85111C12.7013 5.43776 12.5619 5.00423 12.5991 4.58311C12.6332 4.29408 12.7431 4.01904 12.915 3.78905C13.0885 3.55596 13.3178 3.37104 13.5842 3.25605C13.8583 3.13639 14.1619 3.09755 14.4578 3.14417C14.7536 3.19079 15.0293 3.31977 15.2554 3.51712C15.7124 3.93357 16.0237 4.48676 16.1383 5.09746C16.2545 5.69417 16.335 6.29709 16.383 6.90313C16.4512 7.46099 16.5767 8.04217 16.9608 8.44775C17.4967 9.01804 18.3672 9.06932 19.1478 9.06932C19.9269 9.06932 20.7866 9.06931 21.3721 9.5992C22.0737 10.2192 22.0288 11.4795 21.3148 12.0824C21.1227 12.2425 20.8811 12.3901 20.8315 12.6372C20.8269 12.6667 20.8269 12.6978 20.8315 12.7304C20.8253 13.0272 21.1165 13.2665 21.3194 13.5089L21.3225 13.5074Z" fill="white"></path></svg>