<svg width="20" height="20" viewBox="0 0 20 20" fill="none" xmlns="http://www.w3.org/2000/svg"><path d="M0 3.33333C0 1.49238 1.49238 0 3.33333 0H16.6667C18.5076 0 20 1.49238 20 3.33333V16.6667C20 18.5076 18.5076 20 16.6667 20H3.33333C1.49238 20 0 18.5076 0 16.6667V3.33333Z" fill="#2463EB"></path><path d="M9.22862 3.61655C9.53822 2.96773 10.4618 2.96773 10.7714 3.61655L12.1043 6.40999C12.2289 6.67111 12.4772 6.85147 12.764 6.88928L15.8327 7.29378C16.5454 7.38773 16.8308 8.26609 16.3094 8.76103L14.0646 10.892C13.8547 11.0912 13.7599 11.383 13.8126 11.6675L14.3762 14.7109C14.5071 15.4178 13.7599 15.9607 13.128 15.6177L10.4077 14.1413C10.1534 14.0033 9.84658 14.0033 9.59229 14.1413L6.87196 15.6177C6.24012 15.9607 5.49295 15.4178 5.62384 14.7109L6.1874 11.6675C6.24008 11.383 6.14526 11.0912 5.93542 10.892L3.69061 8.76103C3.16922 8.26609 3.45461 7.38773 4.16735 7.29378L7.23598 6.88928C7.52282 6.85147 7.77106 6.67111 7.89566 6.40999L9.22862 3.61655Z" fill="#FEFEFE"></path></svg>